<mxfile host="Electron" agent="Mozilla/5.0 (Macintosh; Intel Mac OS X 10_15_7) AppleWebKit/537.36 (KHTML, like Gecko) draw.io/24.7.8 Chrome/128.0.6613.36 Electron/32.0.1 Safari/537.36" version="24.7.8">
  <diagram name="Pagina-1" id="8XA0GF0U4r00a45ndteG">
    <mxGraphModel dx="700" dy="442" grid="1" gridSize="10" guides="1" tooltips="1" connect="1" arrows="1" fold="1" page="1" pageScale="1" pageWidth="1169" pageHeight="827" math="0" shadow="0">
      <root>
        <mxCell id="0" />
        <mxCell id="1" parent="0" />
        <mxCell id="Qrv3tHsd8QDWrn0WAsmq-15" value="" style="shape=arrow;endArrow=classic;html=1;rounded=0;fillColor=#000000;fontFamily=Fira Mono;textShadow=1;strokeColor=#000000;" parent="1" source="Qrv3tHsd8QDWrn0WAsmq-7" edge="1">
          <mxGeometry width="50" height="50" relative="1" as="geometry">
            <mxPoint x="510" y="490" as="sourcePoint" />
            <mxPoint x="1095.8823529411766" y="420" as="targetPoint" />
          </mxGeometry>
        </mxCell>
        <mxCell id="Qrv3tHsd8QDWrn0WAsmq-14" value="" style="shape=arrow;endArrow=classic;html=1;rounded=0;fillColor=#000000;fontFamily=Fira Mono;textShadow=1;strokeColor=#000000;" parent="1" target="Qrv3tHsd8QDWrn0WAsmq-7" edge="1">
          <mxGeometry width="50" height="50" relative="1" as="geometry">
            <mxPoint x="120" y="420" as="sourcePoint" />
            <mxPoint x="530" y="440" as="targetPoint" />
          </mxGeometry>
        </mxCell>
        <mxCell id="Qrv3tHsd8QDWrn0WAsmq-1" value="" style="ellipse;whiteSpace=wrap;html=1;aspect=fixed;fillColor=#f77f00;fontFamily=Fira Mono;textShadow=1;strokeColor=#000000;" parent="1" vertex="1">
          <mxGeometry x="160" y="400" width="40" height="40" as="geometry" />
        </mxCell>
        <mxCell id="Qrv3tHsd8QDWrn0WAsmq-2" value="" style="ellipse;whiteSpace=wrap;html=1;aspect=fixed;fillColor=#d62828;fontFamily=Fira Mono;textShadow=1;strokeColor=#000000;" parent="1" vertex="1">
          <mxGeometry x="240" y="400" width="40" height="40" as="geometry" />
        </mxCell>
        <mxCell id="Qrv3tHsd8QDWrn0WAsmq-4" value="" style="rounded=1;whiteSpace=wrap;html=1;fillColor=#d62828;fontFamily=Fira Mono;textShadow=1;strokeColor=#000000;" parent="1" vertex="1">
          <mxGeometry x="320" y="400" width="40" height="40" as="geometry" />
        </mxCell>
        <mxCell id="Qrv3tHsd8QDWrn0WAsmq-5" value="" style="rounded=1;whiteSpace=wrap;html=1;fillColor=#f77f00;fontFamily=Fira Mono;textShadow=1;strokeColor=#000000;" parent="1" vertex="1">
          <mxGeometry x="400" y="400" width="40" height="40" as="geometry" />
        </mxCell>
        <mxCell id="Qrv3tHsd8QDWrn0WAsmq-6" value="" style="rhombus;whiteSpace=wrap;html=1;fillColor=#d62828;fontFamily=Fira Mono;textShadow=1;strokeColor=#000000;" parent="1" vertex="1">
          <mxGeometry x="480" y="400" width="40" height="40" as="geometry" />
        </mxCell>
        <mxCell id="Qrv3tHsd8QDWrn0WAsmq-7" value="" style="shape=cylinder3;whiteSpace=wrap;html=1;boundedLbl=1;backgroundOutline=1;size=15;rotation=90;fillColor=#eae2b7;fontFamily=Fira Mono;textShadow=1;strokeColor=#000000;" parent="1" vertex="1">
          <mxGeometry x="633.75" y="318.75" width="80" height="202.5" as="geometry" />
        </mxCell>
        <mxCell id="Qrv3tHsd8QDWrn0WAsmq-16" value="" style="rounded=1;whiteSpace=wrap;html=1;fillColor=#fcbf49;fontFamily=Fira Mono;textShadow=1;strokeColor=#000000;" parent="1" vertex="1">
          <mxGeometry x="590" y="395" width="150" height="50" as="geometry" />
        </mxCell>
        <mxCell id="Qrv3tHsd8QDWrn0WAsmq-17" value="" style="ellipse;whiteSpace=wrap;html=1;aspect=fixed;fillColor=#000000;fontFamily=Fira Mono;textShadow=1;strokeColor=#000000;" parent="1" vertex="1">
          <mxGeometry x="604.38" y="412.5" width="15" height="15" as="geometry" />
        </mxCell>
        <mxCell id="Qrv3tHsd8QDWrn0WAsmq-18" value="" style="rounded=1;whiteSpace=wrap;html=1;fillColor=#000000;fontFamily=Fira Mono;textShadow=1;strokeColor=#000000;" parent="1" vertex="1">
          <mxGeometry x="624.38" y="412.5" width="15" height="15" as="geometry" />
        </mxCell>
        <mxCell id="Qrv3tHsd8QDWrn0WAsmq-19" value="" style="rhombus;whiteSpace=wrap;html=1;fillColor=#000000;fontFamily=Fira Mono;textShadow=1;strokeColor=#000000;" parent="1" vertex="1">
          <mxGeometry x="644.38" y="412.5" width="15" height="15" as="geometry" />
        </mxCell>
        <mxCell id="Qrv3tHsd8QDWrn0WAsmq-21" value="&lt;font color=&quot;#000000&quot;&gt;buffer&lt;/font&gt;" style="text;html=1;align=center;verticalAlign=middle;whiteSpace=wrap;rounded=0;fontFamily=Fira Mono;textShadow=1;strokeColor=none;" parent="1" vertex="1">
          <mxGeometry x="600" y="385" width="130" height="10" as="geometry" />
        </mxCell>
        <mxCell id="Qrv3tHsd8QDWrn0WAsmq-37" value="" style="endArrow=block;html=1;rounded=0;endFill=1;strokeWidth=1.5;sourcePerimeterSpacing=0;jumpSize=4;strokeColor=#000000;" parent="1" edge="1">
          <mxGeometry width="50" height="50" relative="1" as="geometry">
            <mxPoint x="665" y="419.92" as="sourcePoint" />
            <mxPoint x="680" y="420" as="targetPoint" />
            <Array as="points">
              <mxPoint x="680" y="420" />
            </Array>
          </mxGeometry>
        </mxCell>
        <mxCell id="nMzqEQj8RB4CVh261bJb-2" value="" style="rounded=1;whiteSpace=wrap;html=1;fillColor=#fcbf49;fontFamily=Fira Mono;textShadow=1;strokeColor=#000000;" vertex="1" parent="1">
          <mxGeometry x="840" y="390" width="180" height="60" as="geometry" />
        </mxCell>
        <mxCell id="nMzqEQj8RB4CVh261bJb-3" value="" style="ellipse;whiteSpace=wrap;html=1;aspect=fixed;fillColor=#f77f00;fontFamily=Fira Mono;textShadow=1;strokeColor=#000000;" vertex="1" parent="1">
          <mxGeometry x="860" y="410" width="20" height="20" as="geometry" />
        </mxCell>
        <mxCell id="nMzqEQj8RB4CVh261bJb-4" value="" style="ellipse;whiteSpace=wrap;html=1;aspect=fixed;fillColor=#d62828;fontFamily=Fira Mono;textShadow=1;strokeColor=#000000;" vertex="1" parent="1">
          <mxGeometry x="890" y="410" width="20" height="20" as="geometry" />
        </mxCell>
        <mxCell id="nMzqEQj8RB4CVh261bJb-5" value="" style="rounded=1;whiteSpace=wrap;html=1;fillColor=#d62828;fontFamily=Fira Mono;textShadow=1;strokeColor=#000000;" vertex="1" parent="1">
          <mxGeometry x="920" y="410" width="20" height="20" as="geometry" />
        </mxCell>
        <mxCell id="nMzqEQj8RB4CVh261bJb-6" value="" style="rounded=1;whiteSpace=wrap;html=1;fillColor=#f77f00;fontFamily=Fira Mono;textShadow=1;strokeColor=#000000;" vertex="1" parent="1">
          <mxGeometry x="950" y="410" width="20" height="20" as="geometry" />
        </mxCell>
        <mxCell id="nMzqEQj8RB4CVh261bJb-7" value="" style="rhombus;whiteSpace=wrap;html=1;fillColor=#d62828;fontFamily=Fira Mono;textShadow=1;strokeColor=#000000;" vertex="1" parent="1">
          <mxGeometry x="980" y="410" width="20" height="20" as="geometry" />
        </mxCell>
        <mxCell id="nMzqEQj8RB4CVh261bJb-8" value="" style="rounded=1;whiteSpace=wrap;html=1;fillColor=none;fontFamily=Fira Mono;textShadow=1;strokeColor=#000000;" vertex="1" parent="1">
          <mxGeometry x="680.63" y="407.5" width="45" height="25" as="geometry" />
        </mxCell>
        <mxCell id="nMzqEQj8RB4CVh261bJb-9" value="" style="ellipse;whiteSpace=wrap;html=1;aspect=fixed;fillColor=#000000;fontFamily=Fira Mono;textShadow=1;strokeColor=#000000;" vertex="1" parent="1">
          <mxGeometry x="684.63" y="415" width="10" height="10" as="geometry" />
        </mxCell>
        <mxCell id="nMzqEQj8RB4CVh261bJb-10" value="" style="rounded=1;whiteSpace=wrap;html=1;fillColor=#000000;fontFamily=Fira Mono;textShadow=1;strokeColor=#000000;" vertex="1" parent="1">
          <mxGeometry x="698.13" y="415" width="10" height="10" as="geometry" />
        </mxCell>
        <mxCell id="nMzqEQj8RB4CVh261bJb-11" value="" style="rhombus;whiteSpace=wrap;html=1;fillColor=#000000;fontFamily=Fira Mono;textShadow=1;strokeColor=#000000;" vertex="1" parent="1">
          <mxGeometry x="711.63" y="415" width="10" height="10" as="geometry" />
        </mxCell>
        <mxCell id="nMzqEQj8RB4CVh261bJb-13" value="" style="shape=arrow;endArrow=classic;html=1;rounded=0;strokeColor=none;fillColor=#000000;" edge="1" parent="1" target="Qrv3tHsd8QDWrn0WAsmq-16">
          <mxGeometry width="50" height="50" relative="1" as="geometry">
            <mxPoint x="665" y="500" as="sourcePoint" />
            <mxPoint x="730" y="480" as="targetPoint" />
          </mxGeometry>
        </mxCell>
        <mxCell id="nMzqEQj8RB4CVh261bJb-15" value="" style="ellipse;whiteSpace=wrap;html=1;aspect=fixed;fillColor=#000000;fontFamily=Fira Mono;textShadow=1;strokeColor=#000000;" vertex="1" parent="1">
          <mxGeometry x="645" y="500" width="40" height="40" as="geometry" />
        </mxCell>
      </root>
    </mxGraphModel>
  </diagram>
</mxfile>
